<?xml version="1.0" encoding="utf-8"?>
<!-- Generator: Adobe Illustrator 23.0.5, SVG Export Plug-In . SVG Version: 6.00 Build 0)  -->
<svg version="1.1" id="Layer_1" xmlns="http://www.w3.org/2000/svg" xmlns:xlink="http://www.w3.org/1999/xlink" x="0px" y="0px"
	 viewBox="0 0 1080 1080" style="enable-background:new 0 0 1080 1080;" xml:space="preserve">
<style type="text/css">
	.st0{fill:#F682AB;}
</style>
<g>
	<path class="st0" d="M797.5,694.6c1.9,0.9,8.5,4.3,17.1,9.2c13.2,7.4,25.3,16.2,36.3,26.5c4.5,4.7,9.1,9.3,13.7,13.8
		c10.7,10.8,18.3,23.7,26.5,36.3c6.9,10.6,13.8,24.1,18.5,43.2c1,4.3,3.2,14,3.8,26.7c0.7,15.6,2.8,57.9-20.1,75.2
		c-11.8,8.9-26,8.1-31.7,8.1c-202.7,0-405.3,0-608,0c-4,0-8.1-0.1-12.1-0.2c-19-0.3-33.7-20.6-39.5-37.4c-4.5-13-3.5-26-2.9-34
		c0.4-5.2,1.1-9.6,1.7-12.6c0.6-4.9,2.1-9.7,3.1-14.5c4-19.6,12.3-37.5,21.8-54.9c7.9-11.7,15.1-24,25.2-34.2
		c4.7-6.8,11.2-11.9,17.3-17.3c10.1-10.1,22.3-17.4,34.1-25.2c16-8.7,32.6-15.8,50.3-20.2c2.3-0.5,4.6-1,6.8-1.8
		c4.3-0.8,8.5-2.4,13-2.7c6.7-1.1,12.1-1.7,15.7-2.1c23.1-2.5,41.5-4.3,61.6,2.5c3.9,1.3,2.2,1,8.8,3.6c15.3,5.8,30.9,10.6,47,13.5
		c1,0.2,2,0.4,3,0.7c16.7,2.3,33.4,4.7,50.3,4.2c15,0.5,29.9-1.6,44.7-3.5c2.5-0.2,5-0.3,7.5-1.1c17.2-3.3,34-8.3,50.2-14.9
		c4.6-1.4,8.7-3.8,13.5-4.6c2.5-0.4,7.8-1.7,15.2-1.9C753.2,673.4,797.5,694.6,797.5,694.6z"/>
	<path class="st0" d="M756.3,615.7c-2.5,1-4.9,1.9-7.3,2.8c-28.2,10.9-57.6,12.3-87.3,11.3c-1.1,0-2.2,0-3.4,0
		c-15.5,0.3-31,0.3-46.5,0c-1.2,0-2.3,0-3.5,0c-16.4,0.3-32.7,0.3-49.1,0c-11.3,0-22.5,0.7-33.8-0.5c-7-1.6-13.8-3.8-20-7.6
		c-16.6-10.4-24.8-25.6-25.8-45c-0.2-21.8,10.4-37.2,28.5-48.2c4.8-1.9,9.4-4.2,14.5-5c11.9-2.7,24-1.9,36.1-1.9
		c9.9,0,19.8-0.6,29.6,0.5c14.8,2.6,27.8,8.2,37.4,20.4c4.9,6.2,8.3,13,10.1,20.7c0.8,3.3,1.2,6.8,3.8,9.3c1.9,1.4,4,1.5,6.2,1.5
		c21.3-0.1,42.6,0.6,63.7-3.2c18.8-2.6,35.1-11.3,50.8-21.4c9.4-8.5,18.9-16.9,26.5-27.2c10.3-15.7,17.8-32.6,22.3-50.8
		c3.5-19.6,3.9-39.2,1.8-58.9c-0.9-12.6-2-25.3-4.4-37.7c-2.8-18.2-8.8-35.6-15.6-52.6c-7.7-17.3-16.3-34.1-28.9-48.5
		c-0.5-0.7-0.9-1.5-1.2-2.3c-0.6-1.5-1.2-3.1-2.3-4.4c-13.8-17.1-29.2-32.6-46.8-45.8c-1.8-1.3-3.4-2.7-5.1-4
		c-14.8-9.8-29.1-20.3-46.2-26.1c-18.3-7.7-36.9-14.4-56.7-17.3c-14.9-2.3-29.8-4-44.8-3.5c-17.2-0.7-34.1,1.8-51,4.5
		c-17.5,3.6-34.4,9.2-50.7,16.4c-17.9,6.1-32.9,17.3-48.3,27.6c-0.7,0.5-1.4,1-2.2,1.5c-19.5,14.6-36.4,31.8-51.2,51.2
		c-0.4,0.8-0.9,1.5-1.4,2.2c-10.9,15.1-20.8,30.7-27.6,48.2c-7.4,16.1-12.3,33-15.8,50.3c-0.1,1-0.3,2-0.6,3.1
		c-4.9,24.7-4.8,49.8-4.7,74.8c0,1.6-0.2,3.1-0.7,4.6c-2.9,11.1-10.8,17.3-21.1,21.1c-3.9,1-7.9,1-11.9,0
		c-10.5-3.6-18.4-9.7-21.1-21.1c-0.5-2.1-0.8-4.2-0.8-6.4c0.8-20.3-2.1-40.7,1.3-61c0.8-3.1,0.5-6.4,1.2-9.5
		c3.3-19.1,7.4-38.1,14.4-56.3c5.9-17.3,12.9-34,22.5-49.6c0.4-0.8,0.8-1.6,1.2-2.3c3.3-6.4,7.5-12.4,11.4-18.5
		c8.4-11.4,16.8-22.8,25.8-33.6c8.2-8.1,16-16.6,24.6-24.3c1.4-1,2.8-1.9,4.1-2.9c9.2-8.8,19.9-15.9,29.9-23.6
		c5.5-4.3,10.9-7.2,16.6-10.6c22.5-13.3,33.9-20,50.5-25.3c4.5-1.4,10.8-3,23.7-5.8c18.5-4,27.7-6.5,35.5-7.1
		c19.5-1.5,35.9-1.3,48.1-0.8c40.4,1.8,72.6,8.2,89.7,13.5c3.4,1.1,5.2,1.2,7.2,1.8c30.3,8.2,50.3,21,72.5,35.6
		c8.6,5.7,20.3,12.4,33.3,24.7c11.7,11.1,20.9,19.7,25.1,24.3c13.7,15,22.3,27.9,27.5,35.7c9.2,13.8,15,24.8,16.5,27.7
		c2.5,4.7,9.8,19.8,18,41.9c13.6,36.8,15.5,68,16.9,85c1.5,18,2.9,35.8-0.1,59.4c-3.4,26.7-10.3,44-12.1,48.3
		c-1.3,3.2-6.2,14.9-15.1,28.9c-10.2,16-20.6,27.1-26.6,33.1C788,602.1,762.6,613.1,756.3,615.7z"/>
	<path class="st0" d="M695,270.5c7.2,6.4,12.2,11.7,15.1,14.8c11.9,12.6,26.4,28.2,36.9,52.2c3.2,7.3,5.1,13.2,6.4,17.5
		c2.1,6.8,6.4,21.5,8.3,41.2c0.4,3.9,1,8.4,1,17.2c0,14.6,0,29.3,0,43.9c0.9,24.1-11.9,41.1-29.9,54.4c-16,11.9-32.4,12.5-39.5,12.9
		c-8.2,0.5-19.7,1.1-27.9-6.2c-3.1-2.7-4.2-5.7-5.4-6.9c-7.6-8.2-21.3-20.9-41.9-29.3c-21.2-8.7-38.6-8.4-59.4-8
		c-23.9,0.4-53.3,0.9-79.7,18.3c-16.1,10.6-26,24.1-27.1,25.6c-5.8,8.1-9.2,15.3-10.8,19.3c-6.2,15.1-7.4,29-7.2,38.7
		c-3.4,9.7-7.7,3.8-11.9,0.7c-5.1-5.5-10.5-10.8-15.9-16.1c-3.9-4.1-8.9-9.7-14.3-16.9c-4.7-6.3-13-17.5-20.3-33.9
		c-3.8-8.7-8.3-20.9-11-36c-2.2-11.8-4.9-23.5-5.7-35.5c0-12.5,0-24.9,0-37.4c1.5-13,6.5-48.5,24.1-80.7
		c3.9-7.1,12.2-19.9,25.2-35.2c5.5-6.4,10.4-10.1,16.5-15.2c15-12.6,31.2-26.2,54.8-36.1c8-3.4,19.8-7.5,35-10.1
		c8-1.4,16.1-2.8,24.1-4.2c7.4-1,15.5-1.6,24.3-1.7c3.8,0,7.4,0.1,10.9,0.2c4.9,0.2,19.8,1.1,23.1,1.4
		C605.2,220.7,651.7,231.9,695,270.5z"/>
</g>
</svg>
